<svg width="320" height="489" viewBox="0 0 320 489" fill="none" xmlns="http://www.w3.org/2000/svg">
<rect x="9.5" y="77.5" width="290" height="332" rx="51.5" stroke="black" stroke-width="19"/>
<path d="M70.7331 75.7613L78.5211 29.8983C80.5214 18.1187 90.7271 9.49994 102.675 9.49994L206.698 9.49995C218.687 9.49995 228.915 18.1758 230.87 30.004L237.317 68.9986C238.039 73.3701 234.108 77.0837 229.785 76.1131C227.969 75.7055 226.115 75.4999 224.254 75.4999L80.7755 75.4999C77.9601 75.4999 75.1753 76.0843 72.5975 77.2161C72.2751 77.3576 72.0524 77.3615 71.8861 77.3375C71.6868 77.3087 71.4525 77.2179 71.2311 77.0451C71.0096 76.8723 70.8646 76.6671 70.7883 76.4808C70.7245 76.3253 70.6742 76.1084 70.7331 75.7613Z" stroke="black" stroke-width="19"/>
<path d="M237.767 413.239L229.979 459.102C227.979 470.882 217.773 479.5 205.825 479.5H101.802C89.8129 479.5 79.5851 470.824 77.6297 458.996L71.1834 420.002C70.4608 415.63 74.3923 411.917 78.7155 412.887C80.5307 413.295 82.3855 413.5 84.2459 413.5L227.725 413.5C230.54 413.5 233.325 412.916 235.903 411.784C236.225 411.643 236.448 411.639 236.614 411.663C236.813 411.692 237.048 411.782 237.269 411.955C237.49 412.128 237.635 412.333 237.712 412.519C237.775 412.675 237.826 412.892 237.767 413.239Z" stroke="black" stroke-width="19"/>
<rect x="92.5225" y="238.395" width="19.8217" height="91.7975" rx="9.91086" transform="rotate(-40.6379 92.5225 238.395)" fill="black"/>
<rect x="222.566" y="180.916" width="20.3967" height="142.201" rx="10.1983" transform="rotate(35.9664 222.566 180.916)" fill="black"/>
<rect x="297" y="150" width="23" height="78" rx="7" fill="black"/>
<rect x="297" y="234" width="23" height="78" rx="7" fill="black"/>
</svg>
